<?xml version="1.0" encoding="utf-8"?>
<!-- Generator: Adobe Illustrator 23.0.4, SVG Export Plug-In . SVG Version: 6.00 Build 0)  -->
<svg version="1.1" id="Layer_1" xmlns="http://www.w3.org/2000/svg" xmlns:xlink="http://www.w3.org/1999/xlink" x="0px" y="0px"
	 viewBox="0 0 200 127.2" style="enable-background:new 0 0 200 127.2;" xml:space="preserve">
<style type="text/css">
	.st0{clip-path:url(#SVGID_2_);fill:#DE761C;}
</style>
<g>
	<defs>
		<rect id="SVGID_1_" y="0" width="200" height="127.2"/>
	</defs>
	<clipPath id="SVGID_2_">
		<use xlink:href="#SVGID_1_"  style="overflow:visible;"/>
	</clipPath>
	<path class="st0" d="M159.6,127.2c-5.1-6.1-10.2-12.3-15.4-18.3c-0.5-0.6-1.6-0.9-2.4-0.9c-11.9-0.1-23.9,0-35.8,0
		c-9,0-15.5-6.6-15.6-15.6c0-13.4,0-26.8,0-40.2c0-6.5,4.2-12.4,10.4-14.3c1.5-0.5,3.1-0.7,4.7-0.7c26.4,0,52.8,0,79.2,0
		c7.8,0,13.6,4.9,14.9,12.7c0.1,0.3,0.2,0.6,0.4,0.9v43.6c-0.1,0.2-0.3,0.3-0.3,0.5c-0.6,6.7-6.6,13.4-15.8,13.1
		c-5.2-0.2-10.4,0-15.6,0h-7.1v2.2c0,4.9,0,9.8,0,14.8c0,0.8-0.3,1.5-0.4,2.3H159.6z"/>
	<path class="st0" d="M132.3,29.5c-2.9,0-5.8,0-8.6,0c-9,0-18,0-27,0.1c-7.1,0-13.3,5.5-15,12.6c-0.3,1.3-0.4,2.6-0.4,3.9
		c0,12.3,0,24.5,0,36.8c0,1.1,0.1,2.2,0.2,3.5c-5.6,0-11.3,0.2-16.9-0.1c-3.1-0.1-5.2,0.7-7.2,3.2c-6,7.5-12.3,14.7-18.5,22
		c-0.5,0.6-1.5,0.8-2.3,1.1c-0.4-0.8-1-1.6-1-2.4c-0.1-7.1,0-14.3,0-21.4c0-0.8,0-1.6,0-2.5c-5.2,0-10.2-0.1-15.2,0
		C9.6,86.6,1.4,78,0.4,68.7c-0.2-2-0.4-4.1-0.4-6.2c0-13.7-0.1-27.3,0-41c0-5.8,1.8-11.1,5.9-15.4C10.1,1.9,15.2,0,21,0
		c22.1,0,44.1,0,66.2,0c8.1,0,16.1,0,24.2,0c10.8,0,19,6.5,20.8,17.1C132.9,21,132.3,25.2,132.3,29.5"/>
</g>
</svg>
